#!OML:ASF \\sashay\E\Suitcase\Project 1\Capture day 1\Session 1\Male1.ASF
:FULLY-SPECIFIED
:DEGREES
147
root -0.455006 17.3313 21.0052 8.45161 6.67433 -0.939119
lowerback 2.57788 -2.02772 1.07089
upperback 1.86177 -2.68218 2.74391
thorax 0.547945 -1.3462 2.26765
lowerneck -12.3456 -1.96345 -3.16017
upperneck 32.0255 0.878535 -8.79977
head 12.7991 -1.11017 -2.72762
rclavicle -7.15625e-015 -3.97569e-015
rhumerus -50.1485 -37.7643 -46.6828
rradius 11.3467
rwrist 10.0714
rhand -18.1127 17.6962
rfingers 7.12502
rthumb 8.16153 -12.1262
lclavicle -7.15625e-015 -3.97569e-015
lhumerus -36.0834 -0.740599 86.8455
lradius 43.3272
lwrist 0.292583
lhand -5.85711 43.2472
lfingers 7.12502
lthumb 19.9697 72.2411
rfemur -5.0975 -0.263785 26.1359
rtibia 13.1182
rfoot -15.2089 -17.1244
rtoes 13.4827
lfemur -5.41936 -6.52661 -12.1666
ltibia 12.0475
lfoot -14.4118 2.32057
ltoes -7.74803
148
root -0.447824 17.3441 21.0378 8.45817 7.14967 -0.881064
lowerback 2.14535 -1.984 1.19676
upperback 1.86523 -2.63435 2.67517
thorax 0.782882 -1.32051 2.10881
lowerneck -11.6786 -2.04266 -3.79192
upperneck 31.5381 0.660146 -8.22094
head 12.4468 -1.17863 -2.38788
rclavicle 1.78906e-015 4.05521e-014
rhumerus -50.2115 -37.8916 -46.6109
rradius 11.0656
rwrist 10.0592
rhand -18.566 17.2152
rfingers 7.12502
rthumb 7.72402 -12.6237
lclavicle 1.78906e-015 4.05521e-014
lhumerus -36.1736 -0.864836 86.8774
lradius 42.9838
lwrist 0.421787
lhand -5.9958 43.093
lfingers 7.12502
lthumb 19.8364 72.1008
rfemur -4.58935 -0.858427 26.0796
rtibia 12.4027
rfoot -15.0646 -16.9136
rtoes 13.359
lfemur -5.51559 -6.91086 -12.1643
ltibia 12.4452
lfoot -14.3954 2.16468
ltoes -5.34074
149
root -0.431898 17.3278 21.0701 8.52631 7.44889 -0.929942
lowerback 1.60203 -2.00942 1.42434
upperback 1.85578 -2.68204 2.62329
thorax 1.06573 -1.34099 1.908
lowerneck -12.0165 -1.96824 -3.36659
upperneck 31.6972 0.84059 -8.65897
head 12.5907 -1.11411 -2.61977
rclavicle -5.60573e-014 -9.54166e-015
rhumerus -50.8809 -38.956 -45.275
rradius 10.7582
rwrist 11.5398
rhand -18.1701 16.5863
rfingers 7.12502
rthumb 8.10617 -13.2382
lclavicle -5.60573e-014 -9.54166e-015
lhumerus -36.2979 -0.369341 86.5901
lradius 42.4786
lwrist 0.186875
lhand -6.46279 42.4465
lfingers 7.12502
lthumb 19.3874 71.5001
rfemur -4.2658 -1.56121 26.129
rtibia 11.9654
rfoot -14.8817 -16.6768
rtoes 12.7929
lfemur -5.68108 -6.81013 -12.1901
ltibia 12.6457
lfoot -14.8404 1.98083
ltoes -6.71322
150
root -0.421895 17.3407 21.0985 8.35627 7.82494 -1.3235
lowerback 1.3956 -1.98108 1.91776
upperback 1.84735 -2.64823 2.7374
thorax 1.15541 -1.31821 1.74187
lowerneck -11.6191 -1.94181 -3.69509
upperneck 31.5605 0.8963 -8.55575
head 12.4557 -1.10098 -2.50125
rclavicle 1.64991e-014 1.66979e-014
rhumerus -51.7501 -40.0106 -43.8185
rradius 10.6448
rwrist 12.9409
rhand -18.7026 16.7885
rfingers 7.12502
rthumb 7.59219 -13.0553
lclavicle 1.64991e-014 1.66979e-014
lhumerus -36.6305 -0.0731583 86.6119
lradius 42.6538
lwrist -0.0340162
lhand -5.24088 44.1268
lfingers 7.12502
lthumb 20.562 73.0578
rfemur -3.81538 -1.87996 26.5311
rtibia 11.4739
rfoot -14.8198 -16.6293
rtoes 13.2093
lfemur -5.62534 -7.32373 -11.6538
ltibia 12.7567
lfoot -14.753 1.59474
ltoes -0.760474
151
root -0.427657 17.3396 21.1129 8.45981 7.9136 -1.07227
lowerback 1.24184 -1.83067 1.56243
upperback 1.67221 -2.44916 2.62653
thorax 1.06799 -1.22269 1.82364
lowerneck -10.8795 -2.00933 -4.02513
upperneck 31.2435 0.693195 -8.20886
head 12.1619 -1.15993 -2.31081
rclavicle -1.44119e-014 2.14687e-014
rhumerus -52.42 -40.2553 -43.2986
rradius 10.7942
rwrist 12.9274
rhand -18.4469 16.1431
rfingers 7.12502
rthumb 7.83903 -13.6915
lclavicle -1.44119e-014 2.14687e-014
lhumerus -36.9865 -0.249574 86.547
lradius 42.1671
lwrist 0.0160848
lhand -6.50772 42.7639
lfingers 7.12502
lthumb 19.3442 71.8218
rfemur -3.68975 -1.761 26.3406
rtibia 11.2299
rfoot -14.6355 -16.9952
rtoes 11.5023
lfemur -5.7424 -7.25379 -11.8867
ltibia 12.8318
lfoot -15.0738 1.18748
ltoes -0.105895
